<svg width="24" height="24" viewBox="0 0 24 24" fill="none" xmlns="http://www.w3.org/2000/svg">
<path d="M6.86426 18.5713V18.5029C6.86428 17.9507 7.31199 17.5029 7.86426 17.5029C8.41637 17.5031 8.86423 17.9508 8.86426 18.5029V18.5713C8.86426 19.3565 8.86515 19.8855 8.89844 20.293C8.93076 20.6884 8.98792 20.8815 9.05371 21.0107C9.22146 21.34 9.48897 21.6075 9.81641 21.7744C9.94524 21.8401 10.138 21.8983 10.5332 21.9307C10.9403 21.9639 11.4691 21.9648 12.2529 21.9648H18.5762C19.3597 21.9648 19.8872 21.9639 20.2939 21.9307C20.689 21.8984 20.8817 21.8401 21.0107 21.7744C21.3395 21.6069 21.6073 21.3394 21.7744 21.0117C21.8401 20.8827 21.8984 20.69 21.9307 20.2949C21.9639 19.8881 21.9648 19.36 21.9648 18.5762V5.38867C21.9648 4.605 21.9639 4.07701 21.9307 3.66992C21.8984 3.27464 21.84 3.08201 21.7744 2.95313C21.6076 2.62581 21.3402 2.35834 21.0107 2.19043C20.8814 2.12455 20.6885 2.06652 20.293 2.03418C19.8857 2.0009 19.3573 2 18.5723 2H12.2568C11.4718 2 10.9429 2.00089 10.5352 2.03418C10.1389 2.06654 9.94553 2.12464 9.81641 2.19043C9.4881 2.35779 9.22101 2.62478 9.05371 2.95313C8.98802 3.08224 8.93076 3.27525 8.89844 3.6709C8.86513 4.07872 8.86426 4.60823 8.86426 5.39356V5.45996C8.86407 6.01197 8.41627 6.45977 7.86426 6.45996C7.31209 6.45996 6.86445 6.01208 6.86426 5.45996V5.39356C6.86426 4.64122 6.86279 4.01593 6.9043 3.50781C6.94676 2.98821 7.03906 2.503 7.27246 2.04492C7.63156 1.34016 8.20442 0.767298 8.90918 0.408203C9.36723 0.174901 9.85251 0.0834569 10.3721 0.0410159C10.8801 -0.000481784 11.5046 9.96094e-08 12.2568 2.69824e-07H18.5723C19.3244 7.83086e-09 19.9484 -0.000484478 20.4561 0.0410159C20.9756 0.08349 21.4609 0.174835 21.9189 0.408203C22.6225 0.766759 23.197 1.33915 23.5566 2.04492C23.7899 2.50274 23.8814 2.98779 23.9238 3.50684C23.9653 4.0143 23.9648 4.63785 23.9648 5.38867V18.5762C23.9648 19.327 23.9653 19.9508 23.9238 20.458C23.8814 20.9768 23.7897 21.4613 23.5566 21.9189C23.1973 22.6241 22.6231 23.1978 21.9189 23.5566C21.4612 23.7899 20.976 23.8814 20.457 23.9238C19.9499 23.9653 19.3268 23.9648 18.5762 23.9648H12.2529C11.5023 23.9648 10.8785 23.9653 10.3711 23.9238C9.85216 23.8814 9.36692 23.7898 8.90918 23.5566C8.20359 23.1971 7.63112 22.6228 7.27246 21.9189C7.03906 21.4609 6.94676 20.9757 6.9043 20.4561C6.86279 19.9482 6.86426 19.3236 6.86426 18.5713ZM11.2754 7.15723C11.6659 6.7667 12.2989 6.7667 12.6895 7.15723L16.8076 11.2754C17.1981 11.6659 17.1981 12.299 16.8076 12.6895L12.6895 16.8076C12.299 17.1981 11.6659 17.1981 11.2754 16.8076C10.8849 16.4171 10.8849 15.7841 11.2754 15.3936L13.6865 12.9824H1C0.447769 12.9824 8.76083e-05 12.5346 0 11.9824C0 11.4301 0.447715 10.9824 1 10.9824H13.6865L11.2754 8.57129C10.8849 8.1808 10.885 7.54776 11.2754 7.15723Z" fill="white"/>
</svg>
