<svg width="27" height="27" viewBox="0 0 27 27" fill="none" xmlns="http://www.w3.org/2000/svg">
<path d="M8.34473 4.63569C8.34473 3.94878 8.39504 3.27329 8.49414 2.61323C4.64947 4.47928 2 8.42161 2 12.9804C2.00018 19.3406 7.15633 24.496 13.5166 24.496C18.0759 24.496 22.0171 21.846 23.8828 18.0009C23.2227 18.0999 22.5472 18.1523 21.8604 18.1523C14.3956 18.1521 8.34476 12.1005 8.34473 4.63569ZM10.3447 4.63569C10.3448 10.9959 15.5002 16.1521 21.8604 16.1523C23.0257 16.1523 24.1488 15.9795 25.2061 15.6591C25.5591 15.5521 25.9432 15.6483 26.2041 15.9091C26.4648 16.17 26.5601 16.5533 26.4531 16.9062C24.7712 22.4555 19.6173 26.496 13.5166 26.496C6.05184 26.496 0.000176265 20.4452 0 12.9804C0 6.87957 4.04156 1.72486 9.59082 0.0429202C9.94377 -0.0639284 10.3271 0.0321477 10.5879 0.29292C10.8486 0.55374 10.9448 0.937055 10.8379 1.28999C10.5173 2.34762 10.3447 3.47054 10.3447 4.63569Z" fill="white"/>
</svg>
