<svg width="30" height="28" viewBox="0 0 30 28" fill="none" xmlns="http://www.w3.org/2000/svg">
<path d="M9.64243 0.0790914C10.1647 -0.0300017 10.7049 -0.0263718 11.2274 0.0908101C11.8545 0.231522 12.4201 0.585085 13.1698 1.03515L13.659 1.32811C13.7481 1.38158 13.7649 1.3921 13.785 1.40331C14.0277 1.53851 14.2993 1.61407 14.578 1.62304H14.8709C15.1494 1.6141 15.4207 1.53897 15.6629 1.40429C15.6845 1.3923 15.7085 1.37823 15.7889 1.33007L16.2752 1.03905L16.2811 1.03515C17.0248 0.589805 17.5864 0.240524 18.2098 0.100576C18.7287 -0.0158603 19.2669 -0.0211321 19.7889 0.0869039C20.4157 0.216652 20.9839 0.558521 21.7381 0.993154L22.4159 1.38378C23.1731 1.82012 23.7544 2.14147 24.1815 2.62011C24.5367 3.01819 24.8026 3.48747 24.9618 3.99706C25.1525 4.60785 25.1297 5.27016 25.1151 6.13573L25.1053 6.71874C25.1039 6.80386 25.1039 6.83694 25.1043 6.86522C25.1086 7.14312 25.1796 7.41704 25.3114 7.66308C25.3228 7.68442 25.336 7.70758 25.3836 7.79003C25.4386 7.88517 25.4449 7.89776 25.4569 7.91698C25.6031 8.15235 25.8038 8.35 26.0428 8.49315C26.0656 8.50679 26.0925 8.52143 26.1698 8.56444L26.6717 8.84374H26.6708C26.6719 8.84439 26.6735 8.84504 26.6747 8.84569C27.4326 9.26735 28.0161 9.57826 28.4491 10.0478C28.8096 10.4389 29.0833 10.9026 29.2508 11.4072C29.4521 12.0137 29.4412 12.6748 29.4432 13.5439L29.4452 14.333C29.4471 15.1971 29.4607 15.8605 29.2606 16.4687C29.0936 16.9764 28.8204 17.4425 28.4579 17.8359C28.0221 18.3088 27.4322 18.6217 26.6668 19.0459L26.1708 19.3213C26.1682 19.3227 26.1655 19.3238 26.1629 19.3252C26.0865 19.3675 26.0645 19.3789 26.0448 19.3906C25.8052 19.5335 25.6033 19.7323 25.4559 19.9697C25.4405 19.9946 25.4237 20.0237 25.3827 20.0947C25.3357 20.176 25.3226 20.1987 25.3114 20.2197C25.1797 20.4653 25.1085 20.74 25.1043 21.0195C25.1039 21.0473 25.1039 21.079 25.1053 21.1631L25.1151 21.7666C25.1295 22.6234 25.1529 23.2819 24.9637 23.8896C24.8055 24.3979 24.5408 24.8668 24.1874 25.2646C23.7633 25.7418 23.1854 26.0629 22.4374 26.4971L21.7577 26.8916C21.0036 27.3293 20.434 27.6743 19.8055 27.8057C19.2812 27.9152 18.7403 27.9098 18.2196 27.793C17.5926 27.6522 17.0283 27.2999 16.2782 26.8496L15.7616 26.5391C15.6977 26.5007 15.6793 26.4896 15.6629 26.4805C15.4203 26.3453 15.1477 26.2697 14.869 26.2607H14.576C14.2987 26.2697 14.0282 26.3453 13.785 26.4805C13.7629 26.4927 13.7377 26.5076 13.659 26.5547L13.1727 26.8457C12.4262 27.2927 11.8635 27.6439 11.2391 27.7842C10.7191 27.9009 10.1801 27.9047 9.65903 27.7969C9.03231 27.6671 8.46423 27.3263 7.70981 26.8916L7.03208 26.501C6.27574 26.0651 5.69371 25.7434 5.26646 25.2646C4.91099 24.8663 4.64525 24.3962 4.48618 23.8867C4.29518 23.2746 4.31712 22.611 4.33188 21.7363L4.34067 21.1777C4.34235 21.0786 4.34308 21.0487 4.34263 21.0225C4.33787 20.747 4.26863 20.4781 4.14146 20.2373C4.13014 20.2159 4.12007 20.1982 4.06528 20.1025C4.01438 20.0136 3.99988 19.9889 3.98618 19.9668C3.84012 19.7309 3.63969 19.5326 3.4022 19.3896C3.38119 19.377 3.36145 19.3663 3.26646 19.3135L2.77427 19.04C2.01419 18.6172 1.43115 18.3058 0.9979 17.8359C0.636325 17.4437 0.365064 16.9795 0.198096 16.4766C-0.00295374 15.8708 0.00476183 15.2123 0.00278325 14.3398L0.000830125 13.5674C-0.00116368 12.6909 -0.0133117 12.0263 0.187354 11.416C0.354397 10.9083 0.628413 10.4414 0.991064 10.0478C1.42681 9.57506 2.01536 9.26223 2.7811 8.83788L3.2772 8.56347C3.36608 8.51421 3.38462 8.50383 3.40415 8.49218C3.64341 8.34942 3.84474 8.15122 3.99204 7.91405C4.00389 7.89496 4.01182 7.87991 4.06431 7.78905C4.11133 7.70766 4.12429 7.68512 4.1356 7.66405C4.26859 7.41602 4.34042 7.14167 4.34458 6.86522C4.34458 6.86522 4.34523 6.85972 4.34458 6.83593C4.34391 6.81127 4.3425 6.77144 4.34165 6.72069L4.33188 6.13769C4.31722 5.26626 4.29533 4.60549 4.48521 3.99511C4.6432 3.48741 4.90691 3.01827 5.2606 2.62011C5.68455 2.14292 6.26202 1.82158 7.00962 1.38769C7.01222 1.38614 7.01482 1.38432 7.01743 1.3828L7.68638 0.99413L7.70298 0.985341C8.45136 0.55084 9.01731 0.209682 9.64243 0.0790914ZM10.7899 2.04198C10.5478 1.98768 10.2964 1.98599 10.0516 2.0371C9.81392 2.08675 9.56812 2.21542 8.69419 2.72265C8.69293 2.72338 8.69154 2.72388 8.69028 2.7246L8.03696 3.10253L8.03403 3.10546C8.02746 3.10948 8.02019 3.11331 8.01353 3.11718C7.14753 3.61979 6.9157 3.76816 6.75571 3.94823C6.59131 4.13331 6.4682 4.35167 6.39438 4.58886C6.3223 4.8205 6.31399 5.09891 6.33091 6.10448L6.34067 6.68749C6.3413 6.72484 6.34278 6.75115 6.3436 6.78124C6.34435 6.80857 6.34525 6.84951 6.34458 6.89452C6.33566 7.49576 6.1801 8.08381 5.89829 8.60936C5.86863 8.66467 5.83777 8.71898 5.79673 8.79003C5.76087 8.8521 5.72619 8.91403 5.69224 8.96874C5.37641 9.47758 4.94247 9.90293 4.42759 10.21C4.3726 10.2427 4.31243 10.2762 4.24692 10.3125L3.74985 10.5879C2.86438 11.0786 2.62676 11.2243 2.46177 11.4033C2.29312 11.5863 2.16572 11.804 2.08774 12.041C2.01161 12.2726 1.99853 12.5523 2.00083 13.5635L2.00278 14.335C2.00506 15.3376 2.01909 15.6162 2.09556 15.8467C2.17419 16.0835 2.30179 16.2995 2.4686 16.4805C2.6327 16.6584 2.86731 16.8032 3.74595 17.292L4.23813 17.5654C4.30967 17.6052 4.37486 17.6409 4.43442 17.6767C4.94438 17.9839 5.37417 18.4081 5.68735 18.9141C5.72321 18.972 5.75641 19.0311 5.80063 19.1084C5.83977 19.1768 5.87785 19.2419 5.91001 19.3027C6.18543 19.8242 6.33263 20.4028 6.34263 20.9892C6.34375 21.0559 6.34219 21.121 6.34067 21.2109L6.33091 21.7705C6.31388 22.7793 6.32286 23.0587 6.39536 23.291C6.4695 23.5285 6.5931 23.747 6.75864 23.9326C6.92037 24.1139 7.15524 24.2628 8.0311 24.7676L8.70884 25.1582C9.5815 25.6611 9.82707 25.7887 10.0643 25.8379C10.3077 25.8883 10.5589 25.8863 10.8006 25.832C11.037 25.7789 11.281 25.6475 12.1454 25.1299L12.6317 24.8389C12.7061 24.7943 12.7586 24.7629 12.8133 24.7324C13.334 24.4429 13.9154 24.2809 14.5116 24.2617H14.5125C14.5761 24.2597 14.6393 24.2607 14.7225 24.2607C14.8061 24.2607 14.8696 24.2597 14.9334 24.2617C15.5301 24.2809 16.1143 24.4433 16.6366 24.7344C16.6875 24.7628 16.7374 24.7925 16.7918 24.8252L17.3075 25.1348C18.1754 25.6558 18.4206 25.7885 18.6581 25.8418C18.902 25.8964 19.1536 25.8983 19.3963 25.8476C19.6339 25.798 19.8803 25.6691 20.7538 25.1621L21.4334 24.7676C22.3001 24.2646 22.5322 24.1157 22.6922 23.9355C22.857 23.7501 22.9799 23.5316 23.0536 23.2949C23.1245 23.0667 23.1328 22.7927 23.1161 21.7998L23.1053 21.1973C23.1038 21.1051 23.1035 21.0483 23.1043 20.9892C23.1133 20.3911 23.2655 19.8025 23.5487 19.2744C23.5783 19.2191 23.6094 19.1645 23.6502 19.0937C23.6975 19.0119 23.7263 18.9639 23.7567 18.915C24.0725 18.4062 24.5065 17.9798 25.0213 17.6728C25.0747 17.641 25.1291 17.611 25.1991 17.5723L25.201 17.5703L25.6971 17.2969C26.5834 16.8057 26.8222 16.6594 26.9872 16.4805C27.1557 16.2975 27.2832 16.0806 27.3612 15.8437C27.4365 15.6149 27.4474 15.3388 27.4452 14.3369L27.4432 13.5488C27.4409 12.5427 27.4286 12.2668 27.3524 12.0371C27.2743 11.8018 27.1463 11.5854 26.9784 11.4033C26.8146 11.2258 26.5794 11.0809 25.702 10.5928H25.701L25.7 10.5918L25.1971 10.3125C25.1184 10.2687 25.0681 10.2395 25.0155 10.208C24.5047 9.90205 24.0726 9.47964 23.7577 8.97265C23.7233 8.91726 23.6866 8.8506 23.6522 8.79101C23.6107 8.71917 23.5788 8.66355 23.5487 8.60741C23.2669 8.08121 23.1136 7.49448 23.1043 6.89647C23.1034 6.83676 23.1037 6.77904 23.1053 6.68554L23.1151 6.10155C23.132 5.09874 23.1245 4.82298 23.0526 4.59276C22.9785 4.35565 22.855 4.13679 22.6893 3.95116C22.5274 3.76979 22.2927 3.62037 21.4178 3.1162L20.7401 2.72558C19.867 2.22246 19.6208 2.09504 19.3836 2.04589C19.1412 1.99572 18.8901 1.99725 18.6473 2.05175C18.4116 2.10471 18.1694 2.23684 17.3075 2.75292C17.3029 2.75563 17.2974 2.75711 17.2928 2.75976L16.8163 3.04589C16.7437 3.08934 16.6899 3.12161 16.6346 3.15233C16.1129 3.44239 15.5306 3.60198 14.9354 3.62108C14.8718 3.62312 14.8086 3.62304 14.7254 3.62304C14.6429 3.62304 14.5772 3.62313 14.5135 3.62108C13.9168 3.60189 13.3328 3.44159 12.8104 3.15038C12.7536 3.11868 12.6942 3.08168 12.6297 3.04296L12.1405 2.74901C11.2724 2.22788 11.0272 2.09523 10.7899 2.04198ZM19.2147 13.9424C19.2147 11.462 17.2039 9.45116 14.7235 9.45116C12.2432 9.4513 10.2323 11.4621 10.2323 13.9424C10.2324 16.4226 12.2433 18.4334 14.7235 18.4336C17.2038 18.4336 19.2146 16.4227 19.2147 13.9424ZM21.2147 13.9424C21.2146 17.5272 18.3084 20.4336 14.7235 20.4336C11.1387 20.4334 8.23239 17.5271 8.23228 13.9424C8.23228 10.3575 11.1387 7.4513 14.7235 7.45116C18.3084 7.45116 21.2147 10.3574 21.2147 13.9424Z" fill="white"/>
</svg>
