<svg width="30" height="30" viewBox="0 0 30 30" fill="none" xmlns="http://www.w3.org/2000/svg">
<path d="M13.9424 28.8848V26.0957C13.9425 25.5435 14.3902 25.0957 14.9424 25.0957C15.4945 25.0958 15.9423 25.5436 15.9424 26.0957V28.8848C15.9422 29.4368 15.4944 29.8847 14.9424 29.8848C14.3902 29.8848 13.9426 29.4369 13.9424 28.8848ZM6.44824 22.2207C6.83874 21.8306 7.4719 21.8305 7.8623 22.2207C8.25283 22.6112 8.25283 23.2452 7.8623 23.6357L5.89062 25.6074C5.5002 25.9978 4.86709 25.9976 4.47656 25.6074C4.08606 25.2169 4.0861 24.5839 4.47656 24.1934L6.44824 22.2207ZM22.2207 22.2207C22.6112 21.8302 23.2452 21.8302 23.6357 22.2207L25.6074 24.1934C25.9976 24.5839 25.9978 25.217 25.6074 25.6074C25.217 25.9978 24.5839 25.9976 24.1934 25.6074L22.2207 23.6357C21.8302 23.2452 21.8302 22.6112 22.2207 22.2207ZM20.9131 14.9424C20.9131 11.6447 18.24 8.97082 14.9424 8.9707C11.6446 8.9707 8.9707 11.6446 8.9707 14.9424C8.97082 18.24 11.6447 20.9131 14.9424 20.9131C18.24 20.913 20.913 18.24 20.9131 14.9424ZM3.78809 13.9424C4.34037 13.9424 4.78809 14.3901 4.78809 14.9424C4.78797 15.4946 4.3403 15.9424 3.78809 15.9424H1C0.447786 15.9424 0.000115433 15.4946 0 14.9424C0 14.3901 0.447715 13.9424 1 13.9424H3.78809ZM28.8848 13.9424C29.4369 13.9426 29.8848 14.3902 29.8848 14.9424C29.8847 15.4944 29.4368 15.9422 28.8848 15.9424H26.0957C25.5436 15.9423 25.0958 15.4945 25.0957 14.9424C25.0957 14.3902 25.5435 13.9425 26.0957 13.9424H28.8848ZM4.47559 4.47559C4.8661 4.08507 5.49912 4.0851 5.88965 4.47559L7.86133 6.44727C8.25185 6.83779 8.25185 7.4708 7.86133 7.86133C7.4708 8.25185 6.83779 8.25185 6.44727 7.86133L4.47559 5.88965C4.0851 5.49912 4.08507 4.8661 4.47559 4.47559ZM24.1934 4.47559C24.5838 4.08512 25.2169 4.08522 25.6074 4.47559C25.9979 4.86611 25.9979 5.49912 25.6074 5.88965L23.6357 7.86133C23.2452 8.25176 22.6122 8.25182 22.2217 7.86133C21.8313 7.47082 21.8313 6.83774 22.2217 6.44727L24.1934 4.47559ZM13.9424 3.78809V1C13.9424 0.447715 14.3901 0 14.9424 0C15.4946 0.000115433 15.9424 0.447786 15.9424 1V3.78809C15.9424 4.3403 15.4946 4.78797 14.9424 4.78809C14.3901 4.78809 13.9424 4.34037 13.9424 3.78809ZM22.9131 14.9424C22.913 19.3445 19.3445 22.913 14.9424 22.9131C10.5401 22.9131 6.97082 19.3446 6.9707 14.9424C6.9707 10.5401 10.5401 6.9707 14.9424 6.9707C19.3446 6.97082 22.9131 10.5401 22.9131 14.9424Z" fill="white"/>
</svg>
